<svg width="418" height="619" viewBox="0 0 418 619" fill="none" xmlns="http://www.w3.org/2000/svg">
<path d="M390.258 156.765L369.321 171.746C367.863 172.806 366.008 173.071 364.285 172.674L348.914 168.564C348.119 168.299 347.324 167.901 346.661 167.371L326.785 151.197C325.327 150.004 324.532 148.413 324.532 146.557V110.63C324.532 108.243 323.074 106.122 320.954 105.194L284.381 89.5506C282.791 88.8878 281.466 87.4295 281.068 85.8386L267.95 42.2222C267.552 40.7639 266.492 39.4382 265.167 38.7753L235.352 21.9386C234.689 21.5409 234.027 21.0106 233.497 20.3477L219.716 2.84813C217.596 0.06411 213.355 -0.201035 210.837 2.18527C208.85 4.04129 208.452 7.09046 209.777 9.47677L275.105 124.55C275.37 125.08 275.635 125.61 275.768 126.141L283.056 158.621C283.189 159.549 283.189 160.344 283.056 161.272L271.66 211.252C271.263 212.976 270.07 214.567 268.347 215.362L251.783 223.184C249.663 224.112 248.338 226.233 248.338 228.619V238.032C248.338 240.153 249.398 242.142 251.253 243.202L284.381 262.69C285.706 263.486 286.634 264.679 287.031 266.137L292.994 285.891C293.392 287.216 293.259 288.807 292.729 290L280.141 317.841C278.418 321.818 281.201 326.193 285.574 326.193H316.714C318.834 326.193 320.689 325.132 321.749 323.409L356.202 268.391C356.6 267.596 356.997 266.8 356.997 266.005L360.443 238.165C360.708 235.911 362.165 234.055 364.285 233.392L379.789 227.559C380.717 227.161 381.777 227.028 382.837 227.294L387.475 227.956C390.125 228.354 392.775 226.896 393.835 224.377L416.892 168.696C418.35 165.382 416.362 161.538 412.785 160.61L394.896 156.235C393.438 155.439 391.715 155.704 390.258 156.765Z" fill="white"/>
<path d="M33.67 617.19L47.7162 605.258C51.9565 601.679 49.4388 594.785 43.8733 594.785H14.1908C11.1431 594.785 8.62534 597.039 8.22781 600.088L7.0352 612.019C6.63767 615.599 9.4204 618.648 12.9982 618.648H29.9596C31.1522 618.648 32.4774 618.118 33.67 617.19Z" fill="white"/>
<path d="M256.289 350.188V330.7C256.289 329.905 256.156 329.109 255.891 328.446L248.868 311.477C247.941 309.223 245.82 307.765 243.303 307.765H223.161C219.848 307.765 217.198 305.114 217.198 301.799V295.303C217.198 291.989 214.548 289.338 211.235 289.338H204.477C202.224 289.338 200.104 290.663 199.176 292.652L175.059 340.776C174.397 342.101 173.204 343.162 171.747 343.692L164.989 346.211C163.663 346.742 162.471 347.669 161.808 348.995L116.887 431.058C116.224 432.383 115.032 433.311 113.574 433.842L59.2446 452.667C58.052 453.065 56.9919 453.993 56.1969 455.053L1.86727 538.309C0.939688 539.635 0.674658 541.358 1.07219 542.816L7.56524 571.982C8.2278 574.766 10.613 576.622 13.3957 576.622H95.6852C97.2753 576.622 98.8655 575.96 99.9256 574.766L137.691 535.525C138.354 534.862 138.884 534.067 139.149 533.139L160.351 462.875C161.013 460.887 162.603 459.296 164.724 458.765L211.5 447.497C213.223 447.099 214.813 445.906 215.475 444.182L215.873 443.254C217.065 440.735 216.27 437.819 214.15 436.095L208.452 431.588C206.465 429.997 205.67 427.478 206.465 425.092L208.717 417.8C208.85 417.138 209.247 416.607 209.645 416.077L254.964 353.635C255.891 352.707 256.289 351.514 256.289 350.188Z" fill="white"/>
</svg>
